<?xml version="1.0" encoding="UTF-8"?>
<svg viewBox="0 0 64 64" xmlns="http://www.w3.org/2000/svg">
  <defs>
    <filter id="glow" x="-20%" y="-20%" width="140%" height="140%">
      <feGaussianBlur stdDeviation="2" result="blur"/>
      <feComposite in="SourceGraphic" in2="blur" operator="over"/>
    </filter>
  </defs>
  <rect x="4" y="4" width="56" height="56" rx="16" fill="rgba(255,255,255,0.6)" stroke="#FFB6C1" stroke-width="1.5"/>
  <ellipse cx="20" cy="16" rx="8" ry="4" fill="rgba(255,255,255,0.4)"/>
  <path d="M24 20c-2 4-2 10 2 16 4 6 10 10 16 10l-2 6c-8-2-16-8-20-16-4-8-4-16 0-22l4 6z" fill="#FFB6C1"/>
<path d="M28 18l4 6c3-2 6-2 8 0l6-4c-4-6-12-6-18-2z" fill="#FFB6C1"/>
</svg>