<?xml version="1.0" encoding="UTF-8"?>
<svg viewBox="0 0 64 64" xmlns="http://www.w3.org/2000/svg">
  <defs>
    <linearGradient id="bgGrad" x1="0%" y1="0%" x2="100%" y2="100%">
      <stop offset="0%" style="stop-color:#FFF0F5"/>
      <stop offset="100%" style="stop-color:#FFE4E1"/>
    </linearGradient>
  </defs>
  <rect x="4" y="4" width="56" height="56" rx="20" fill="url(#bgGrad)"/>
  <text x="50" y="16" font-size="10" fill="#FF69B4">♥</text>
  <text x="10" y="56" font-size="8" fill="#FF69B4">✦</text>
  <path d="M24 20c-2 4-2 10 2 16 4 6 10 10 16 10l-2 6c-8-2-16-8-20-16-4-8-4-16 0-22l4 6z" fill="#FFD1DC"/>
<path d="M28 18l4 6c3-2 6-2 8 0l6-4c-4-6-12-6-18-2z" fill="#FFD1DC"/>
</svg>